<svg width="415" height="897" viewBox="0 0 415 897" fill="none" xmlns="http://www.w3.org/2000/svg">
<path d="M414.188 825.665L414.187 724.045L380.88 805.299L414.188 825.665Z" fill="#FFDBDC"/>
<path d="M414.188 896.106L414.187 850.335L372.741 825.035L343.644 896.106L414.188 896.106Z" fill="#FFDBDC"/>
<path d="M332.978 896.106L414.187 698.115L414.187 689.717L330.733 896.106L332.978 896.106Z" fill="#FFDBDC"/>
<path d="M258.598 896.106C258.411 894.532 258.318 893.062 258.318 891.697C258.318 888.338 258.692 885.608 259.628 883.194C261.405 879.309 261.499 878.365 272.352 855.374C274.223 851.385 274.878 847.816 274.878 844.351C274.971 835.113 269.358 826.715 265.428 822.096L248.962 858.314L216.122 896.106L258.598 896.106Z" fill="#FFDBDC"/>
<path d="M305.659 896.107L342.428 804.775L287.976 772.651L268.89 814.538C273.381 819.157 281.988 829.76 282.176 844.352C282.176 849.076 281.146 854.115 278.807 859.154C267.955 882.249 268.048 882.564 266.177 886.869C266.083 886.973 265.522 889.283 265.616 891.803C265.616 893.167 265.709 894.742 265.99 896.212L305.659 896.212L305.659 896.107Z" fill="#FFDBDC"/>
<path d="M78.4039 605.104L126.306 658.329L156.807 553.979L42.1965 557.234L78.4039 605.104Z" fill="#FFDBDC"/>
<path d="M397.066 668.827L356.087 648.986L305.004 764.358L348.416 789.973L397.066 668.827Z" fill="#FFDBDC"/>
<path d="M251.768 444.274C248.4 475.243 244.564 508.626 241.29 538.126L258.037 537.706L265.521 448.578L251.768 444.274Z" fill="#FFDBDC"/>
<path d="M262.154 581.587L258.131 637.961L267.674 654.548L277.684 648.879L414.187 556.497L414.187 546.839L264.305 551.038L262.715 573.189L291.905 585.051L289.473 592.715L262.154 581.587Z" fill="#FFDBDC"/>
<path d="M400.06 661.477L414.187 626.204L414.187 586.207L365.162 614.132L359.081 641.636L400.06 661.477Z" fill="#FFDBDC"/>
<path d="M73.0698 610.669L68.6725 604.79L46.7796 658.644C49.0251 660.114 51.364 661.794 53.8901 663.578C65.4915 672.187 78.6834 683.524 85.0454 696.647C88.8814 704.625 96.8339 720.057 105.628 736.959L125.369 724.151L128.831 731.29L109.09 743.993C110.961 747.562 112.833 751.236 114.704 754.805L169.623 717.748L134.258 678.485L110.774 704.835L105.628 699.061L129.018 672.816L116.762 659.274L99.7342 677.226L94.7756 671.347L111.616 653.605L73.0698 610.669Z" fill="#FFDBDC"/>
<path d="M31.0622 794.488L40.3246 805.196L108.529 759.215C106.658 755.541 104.693 751.866 102.822 748.192L31.0622 794.488Z" fill="#FFDBDC"/>
<path d="M135.287 810.024C132.2 804.145 123.966 788.608 114.704 770.761L49.0254 815.063L89.9108 861.884L135.287 810.024Z" fill="#FFDBDC"/>
<path d="M231.654 622.529L231.56 622.844C231.56 622.844 231.56 622.844 231.467 623.159C231.467 623.474 231.373 623.999 231.28 624.629C231.186 625.889 230.999 627.883 230.999 630.193C230.999 636.072 231.935 644.365 235.583 651.609C237.08 654.653 240.168 660.532 244.097 668.091L261.125 658.327L250.646 640.166L256.915 551.248L239.7 551.773C235.116 592.295 231.654 622.32 231.654 622.32L231.654 622.529Z" fill="#FFDBDC"/>
<path d="M99.0797 872.381L113.769 859.258L153.063 896.106L206.018 896.106L242.974 853.38L259.908 816.322L178.605 727.614L120.879 766.562C129.299 782.623 136.784 796.796 140.433 803.829L179.354 759.528L184.499 765.197L94.9631 867.657L99.0797 872.381Z" fill="#FFDBDC"/>
<path d="M32.2781 658.851L16.2794 699.373L21.7994 700.528L37.4238 662.001C36.5818 661.476 35.8333 661.056 35.0848 660.636C34.0557 659.901 33.1201 659.376 32.2781 658.851Z" fill="#FFDBDC"/>
<path d="M0.188263 758.9L25.9171 788.399L99.2676 741.053C90.473 724.152 82.614 708.72 78.6845 700.531C72.6032 687.724 56.1367 674.496 43.7869 666.098L28.7239 703.051L55.2947 720.792L51.5523 727.826L25.6364 710.504L10.1991 748.402L3.64997 745.043L18.6195 708.195L13.193 707.04L0.188261 740.004L0.188263 758.9V758.9Z" fill="#FFDBDC"/>
<path d="M0.186759 719.95L11.3203 691.92L0.186756 686.357L0.186759 719.95Z" fill="#FFDBDC"/>
<path d="M35.1787 651.398C36.5821 652.238 38.3597 653.288 40.418 654.548L63.4336 597.859L58.7556 591.665L35.1787 651.398Z" fill="#FFDBDC"/>
<path d="M130.236 421.915L121.815 468.211L140.621 470.625L150.164 434.722L150.164 434.617L157.087 436.927L157.087 437.137L146.047 479.549L145.86 479.549L136.224 515.662L136.785 540.857L137.346 540.962L142.211 540.857L144.644 517.026L153.813 482.173L160.736 484.483L151.754 518.706L149.509 540.752L203.773 539.282L211.445 435.982C191.985 432.308 167.472 427.899 144.083 424.329C139.592 423.595 134.914 422.755 130.236 421.915Z" fill="#FFDBDC"/>
<path d="M211.07 538.966L226.694 538.546C227.536 530.777 228.472 522.589 229.407 514.295C232.12 490.36 234.927 464.955 237.547 441.02C232.588 439.97 226.133 438.71 218.554 437.24L211.07 538.966Z" fill="#FFDBDC"/>
<path d="M283.486 660.743L251.676 682.264C256.447 691.292 261.687 701.16 266.739 710.713C277.498 731.079 287.603 749.975 290.877 755.959L298.549 760.473L349.445 645.836L328.02 635.443L283.486 660.743Z" fill="#FFDBDC"/>
<path d="M177.295 334.153L183.002 295.731L135.754 289.957L130.983 317.461L176.733 334.048L177.295 334.153Z" fill="#FFDBDC"/>
<path d="M132.761 279.35L137.346 249.851L120.318 240.613L101.045 287.224L96.6474 284.914L115.921 238.303L100.203 229.695L81.7715 275.466L77.3742 273.261L95.8989 227.385L67.1762 211.743L64.3694 299.506L124.715 325.016L132.761 279.35Z" fill="#FFDBDC"/>
<path d="M185.06 723.309L263.369 808.762L281.52 768.87L280.49 768.24L279.461 766.246C279.461 766.141 254.762 720.055 237.734 687.721L185.06 723.309Z" fill="#FFDBDC"/>
<path d="M42.1016 466.952L19.928 459.394L42.008 467.477L42.1016 466.952Z" fill="#FFDBDC"/>
<path d="M77.1875 891.278C59.879 870.702 41.1672 852.016 22.4553 832.91L22.3618 833.014L76.1584 893.798C76.2519 893.378 76.3455 893.063 76.439 892.748C76.6262 892.223 76.9068 891.698 77.1875 891.278Z" fill="#FFDBDC"/>
<path d="M237.36 274.941L239.699 217.832L227.443 255.52L189.458 234.524L183.657 267.488L236.05 283.13L237.36 274.941Z" fill="#FFDBDC"/>
<path d="M21.986 527.313L0.186735 519.229L0.186737 544.844L20.1149 544.215L39.1074 477.448L21.986 527.313Z" fill="#FFDBDC"/>
<path d="M0.188066 385.276L0.188068 409.631L4.86603 411.311L0.188069 427.478L0.188071 444.065L44.3481 459.182L55.9494 418.345L62.8728 420.864L62.4986 422.229L49.1196 469.365L49.0261 469.365L27.7881 544.11L54.8267 543.375L83.0816 429.367L90.0986 431.572L62.405 543.06L100.39 542.011L108.436 487.946L115.547 489.311L107.781 541.801L129.487 541.171L128.926 514.506L138.469 478.498L113.114 475.139L123.031 420.549C77.0003 411.416 22.8294 394.934 0.188066 385.276Z" fill="#FFDBDC"/>
<path d="M256.727 124.507L241.289 116.213L241.289 116.318L241.102 116.633C238.763 121.357 236.144 125.032 233.337 127.971L254.294 135.844L256.727 124.507Z" fill="#FFDBDC"/>
<path d="M0.186638 577.809L3.64834 578.544L5.14527 573.925L5.51953 558.178L0.186637 558.388L0.186638 577.809Z" fill="#FFDBDC"/>
<path d="M164.477 553.768L132.105 664.627L176.172 713.442L231.652 676.069C227.723 668.616 224.635 662.632 223.045 659.483C217.712 648.775 216.683 637.752 216.683 630.193C216.683 624.839 217.244 621.165 217.431 620.01C217.525 619.066 218.086 614.656 218.835 607.623L199.374 599.119L202.836 552.824L164.477 553.768Z" fill="#FFDBDC"/>
<path d="M0.186994 677.541L14.2209 684.469L53.6094 584.844L32.8392 557.444L12.8175 558.074L12.3497 575.501L4.86495 598.386L0.186987 596.497L0.186994 677.541Z" fill="#FFDBDC"/>
<path d="M356.555 619.067L336.346 630.615L352.345 638.278L356.555 619.067Z" fill="#FFDBDC"/>
<path d="M225.104 552.088L210.04 552.508L206.953 593.659L219.677 599.223C221.08 587.256 222.952 570.879 225.104 552.088Z" fill="#FFDBDC"/>
<path d="M0.186835 272.317L59.597 297.407L65.0234 127.025L56.0417 123.246L33.0262 197.152L26.1963 194.422L49.2119 120.517L39.5753 116.527L0.186833 250.166L0.186835 272.317Z" fill="#FFDBDC"/>
<path d="M0.187361 832.071L2.99414 830.181L0.187361 827.032L0.187361 832.071Z" fill="#FFDBDC"/>
<path d="M80.9297 87.8706L20.5839 64.1453L9.45037 92.5947L68.6734 116.95L80.9297 87.8706Z" fill="#FFDBDC"/>
<path d="M0.187619 88.7088L2.62017 89.7585L13.6602 61.4141L0.187616 56.0601L0.187619 88.7088Z" fill="#FFDBDC"/>
<path d="M0.187941 0.105883L0.187943 19.1071L5.42727 20.9968C6.83066 14.4881 8.70184 7.45442 10.9473 0.210836L0.187941 0.210837L0.187941 0.105883Z" fill="#FFDBDC"/>
<path d="M93.4668 57.8442L31.5305 35.9035L22.4552 59.104L82.9881 82.9343L93.4668 57.8442Z" fill="#FFDBDC"/>
<path d="M85.4209 0.105885L107.688 11.5487L104.601 18.8972L108.249 20.9968L116.576 0.105882L85.4209 0.105885Z" fill="#FFDBDC"/>
<path d="M18.525 0.104975C15.9054 8.39836 13.7535 16.2718 12.2566 23.3054L26.4776 28.3445L37.5176 1.97887e-05L18.525 2.14491e-05L18.525 0.104975Z" fill="#FFDBDC"/>
<path d="M408.2 0.107206L414.188 4.51636L414.187 0.107206L408.2 0.107206Z" fill="#FFDBDC"/>
<path d="M154.094 96.2664L157.836 84.1937L98.1451 59.6286L87.5729 84.7186L97.6773 88.8128L102.917 76.5302L154.094 96.2664Z" fill="#FFDBDC"/>
<path d="M361.045 0.106714L365.069 2.7312C365.443 1.89137 365.723 0.94655 366.098 0.106714L361.045 0.106714Z" fill="#FFDBDC"/>
<path d="M250.553 151.907L242.226 181.511L243.816 182.036L250.553 151.907Z" fill="#FFDBDC"/>
<path d="M102.073 25.0913L58.2873 0.106222L45.5632 0.106223L33.4941 30.8652L95.5239 52.9109L106.283 25.9311L102.634 23.8316L102.073 25.0913Z" fill="#FFDBDC"/>
<path d="M156.619 0.107801L180.196 13.0203L184.219 0.107799L156.619 0.107801Z" fill="#FFDBDC"/>
<path d="M121.815 0.106928L100.109 54.6963L159.426 79.0515L178.512 18.0584L145.485 0.00197247L121.815 0.00197454L121.815 0.106928ZM148.76 66.5589L124.622 55.7461L132.668 34.0153L157.648 47.5577L148.76 66.5589Z" fill="#FFDBDC"/>
<path d="M261.124 0.105275L268.047 4.09448L268.234 0.105275L261.124 0.105275Z" fill="#FFDBDC"/>
<path d="M189.365 0.108209L184.593 15.3302L263.37 58.3718L267.768 10.0813L250.646 0.108203L189.365 0.108209Z" fill="#FFDBDC"/>
<path d="M133.229 197.783L145.205 203.872L161.297 164.714L143.427 157.471L133.229 197.783Z" fill="#FFDBDC"/>
<path d="M226.228 190.958L211.258 240.508L224.731 247.962L239.139 203.87L240.261 204.395L240.542 196.312L242.039 189.908L239.981 189.278L238.11 195.787L226.228 190.958Z" fill="#FFDBDC"/>
<path d="M0.188432 50.2869L15.6257 56.3757L24.6074 33.3853L0.18843 24.7769L0.188432 50.2869Z" fill="#FFDBDC"/>
<path d="M242.693 107.922L257.944 116.11L262.809 64.0403L234.086 48.3983L225.011 69.6042L220.613 67.2946L229.689 46.0888L182.909 20.5788L163.916 81.0469L186.558 90.3901L184.874 95.4291L162.232 86.086L158.49 98.0536L180.944 106.767L196.194 64.9851L204.24 33.4912L208.918 34.961L201.621 63.6204C219.491 67.0847 230.25 71.5988 236.799 76.5328C243.629 81.6768 245.781 87.5557 245.687 91.9648C245.687 95.1142 244.752 97.3188 244.284 98.2636L242.693 107.922Z" fill="#FFDBDC"/>
<path d="M297.987 422.543C328.206 428.631 356.274 441.439 386.12 448.682C395.476 450.992 404.832 452.987 414.188 454.981L414.187 398.397C398.563 392.518 385.465 382.23 385.465 382.23C371.15 337.299 389.862 316.618 414.187 310.005L414.187 226.021L300.513 210.169L300.7 208.489C293.496 226.756 289.099 237.779 289.099 237.779C289.099 237.779 287.789 241.138 285.637 247.542C283.485 253.841 280.491 263.079 277.31 274.312C270.948 296.777 263.838 327.431 260.75 360.08C259.44 373.517 257.476 392.099 255.23 413.304C269.451 416.454 283.672 419.708 297.987 422.543Z" fill="#FFDBDC"/>
<path d="M354.87 209.645L357.115 140.254L358.145 140.254L330.264 133.115C319.785 159.885 310.336 184.03 303.132 202.297L354.87 209.645Z" fill="#FFDBDC"/>
<path d="M226.976 341.919L235.303 288.484L175.331 270.638L141.837 252.371L137.44 280.296L136.691 284.6L188.617 290.899L182.067 334.885L199.095 337.51L206.767 297.302L211.539 298.457L203.867 338.349L226.976 341.919Z" fill="#FFDBDC"/>
<path d="M414.187 533.297L414.187 493.93L272.632 450.678L265.335 537.391L414.187 533.297Z" fill="#FFDBDC"/>
<path d="M320.067 896.106L414.187 663.472L414.187 652.554L316.324 896.106L320.067 896.106Z" fill="#FFDBDC"/>
<path d="M414.188 485.532L414.187 467.161C398.376 463.696 382.471 460.652 366.846 456.348C338.498 448.579 311.646 436.927 282.83 431.258C273.194 429.368 263.557 427.268 253.92 425.274C253.546 428.843 253.172 432.517 252.704 436.192L414.188 485.532Z" fill="#FFDBDC"/>
<path d="M273.006 0.105967L272.819 6.92963L331.013 40.733L328.767 45.5621L272.351 12.8085L262.621 118.208L315.014 131.645C319.786 119.363 324.838 106.555 329.984 93.3277C340.649 66.0331 351.689 37.3737 362.168 10.184L346.824 0.0010065L273.006 0.00101296L273.006 0.105967Z" fill="#FFDBDC"/>
<path d="M85.5128 89.6544L71.3853 123.248L81.5833 126.817L95.6172 93.7486L85.5128 89.6544Z" fill="#FFDBDC"/>
<path d="M143.707 209.122L131.731 202.928L122.095 235.577L138.187 244.395L143.707 209.122Z" fill="#FFDBDC"/>
<path d="M178.979 266.126L184.967 232.007L148.198 211.536L142.678 246.809L177.014 265.496L178.979 266.126Z" fill="#FFDBDC"/>
<path d="M239.887 96.2671L240.168 95.8472C240.168 95.8472 240.168 95.8471 240.261 95.7422C240.355 95.5322 240.448 95.3223 240.542 95.0074C240.823 94.2725 241.01 93.3276 241.01 92.0679C240.916 89.4434 240.074 85.6641 234.18 81.045C228.473 76.7409 218.181 72.1218 200.124 68.7625L195.259 81.9899L196.195 80.2052L234.835 96.477L231.467 122.407C233.244 120.307 235.022 117.683 236.612 114.534L239.887 96.2671Z" fill="#FFDBDC"/>
<path d="M149.508 206.286L185.996 226.442L194.416 178.047L165.88 166.499L149.508 206.286Z" fill="#FFDBDC"/>
<path d="M190.394 228.961L206.954 238.094L221.736 189.069L199.001 179.936L190.394 228.961Z" fill="#FFDBDC"/>
<path d="M68.6725 164.399L128.738 195.473L138.936 155.686L125.744 150.332L69.7016 131.226L68.6725 164.399Z" fill="#FFDBDC"/>
<path d="M67.3636 206.916L67.7379 205.971L97.6769 222.243L107.781 190.539L68.4863 170.278L67.3636 206.916Z" fill="#FFDBDC"/>
<path d="M127.334 200.722L112.177 192.849L101.979 224.658L117.697 233.161L127.334 200.722Z" fill="#FFDBDC"/>
<path d="M353.28 74.1186C346.451 91.6502 339.714 109.077 333.259 125.559L414.188 146.344L414.187 81.1522L381.067 66.2451L383.781 58.6866L414.187 72.439L414.187 62.2559L366.846 39.1605C363.291 48.2937 359.736 57.5319 356.181 66.6651L393.792 88.0809L390.517 95.3245L353.28 74.1186Z" fill="#FFDBDC"/>
<path d="M213.878 405.329C222.86 406.799 231.841 408.583 240.823 410.368C243.068 389.687 244.94 371.526 246.249 358.403C252.892 290.061 275.627 231.798 275.814 231.378C275.814 231.378 279.744 221.51 286.199 205.028L246.624 191.591L245.407 197.155L242.226 275.679L223.702 395.986L218.93 395.041L226.228 347.38L202.838 343.706L202.744 344.441L197.131 393.151L192.359 392.416L197.973 343.601L198.066 342.866L181.319 340.242L174.489 385.908L169.718 385.068L176.454 339.507L175.612 339.402L130.049 322.92L120.599 377.089L115.828 376.04L123.78 330.584L64.0894 305.283L58.1952 366.801C78.404 372.575 98.145 379.924 118.354 386.223C149.79 395.881 181.787 399.975 213.878 405.329Z" fill="#FFDBDC"/>
<path d="M0.187118 353.572C11.04 355.881 21.8929 358.191 32.7457 360.395C39.7627 361.76 46.6861 363.545 53.5159 365.434L59.4102 303.601L59.4102 303.286L0.187111 278.196L0.187118 353.572Z" fill="#FFDBDC"/>
<path d="M0.187462 224.239L32.7461 113.696L5.98814 102.673L0.187453 120.729L0.187462 224.239Z" fill="#FFDBDC"/>
<path d="M0.187158 376.564C0.654954 376.774 1.12275 376.984 1.59055 377.194C25.8224 387.797 95.9919 408.898 145.017 416.247C181.037 421.705 219.771 429.264 238.389 432.938C238.763 429.264 239.138 425.695 239.605 422.125C222.578 418.556 205.55 415.092 188.429 412.467C159.799 408.163 130.983 403.754 103.196 394.726C73.0699 384.963 43.7858 374.36 12.8177 368.061C8.6075 367.221 4.39733 366.276 0.187157 365.436L0.187158 376.564Z" fill="#FFDBDC"/>
<path d="M54.2657 896.106L54.9206 896.106L57.166 891.487L11.7897 840.152L0.188388 847.816L0.188389 860.728L14.7836 851.805L54.2657 896.106Z" fill="#FFDBDC"/>
<path d="M414.188 217.833L414.187 154.74L364.32 141.933L362.075 210.589L414.188 217.833Z" fill="#FFDBDC"/>
<path d="M292.093 190.015C297.707 175.633 304.537 158.312 312.021 139.205L261.312 126.188L248.401 183.507L289.193 197.364C290.129 195.054 291.064 192.64 292.093 190.015Z" fill="#FFDBDC"/>
<path d="M381.816 0.108667C377.886 10.3967 373.77 20.9996 369.653 31.7075L391.265 42.3104L401.463 14.2809L408.2 17.3253L398.095 45.4598L414.188 53.4382L414.187 14.2809L395.101 0.108665L381.816 0.108667Z" fill="#FFDBDC"/>
<path d="M153.062 896.106L113.768 859.258L99.0788 872.381L119.849 896.106L153.062 896.106Z" fill="#DCD8BA"/>
<path d="M54.2656 896.106L14.7836 851.805L0.188344 860.728L0.188346 893.272L2.05953 896.106L54.2656 896.106Z" fill="#CCC2B8"/>
<path d="M139.123 154.848L125.744 150.334L138.936 155.688L139.123 154.848Z" fill="#CCC2B8"/>
<path d="M254.201 135.846L233.244 127.973C226.508 134.902 218.649 137.211 211.819 137.106C201.34 137.106 192.826 132.277 191.329 131.437L153.064 116.32L145.579 148.549L242.226 181.512L250.646 152.013L254.201 135.846Z" fill="#CCC2B8"/>
<path d="M154.092 96.2689L102.915 76.5328L97.6755 88.8154L149.975 109.391L154.092 96.2689Z" fill="#CCC2B8"/>
<path d="M165.882 166.5L194.418 178.048L195.166 173.953L166.818 164.295L165.882 166.5Z" fill="#CCC2B8"/>
<path d="M95.6175 93.7488L81.5836 126.817L140.9 146.973L148.479 114.535L95.6175 93.7488Z" fill="#CCC2B8"/>
<path d="M143.427 157.472L161.297 164.716L162.139 162.721L143.707 156.422L143.427 157.472Z" fill="#CCC2B8"/>
<path d="M226.227 190.961L238.109 195.79L239.98 189.281L228.005 185.187L226.227 190.961Z" fill="#CCC2B8"/>
<path d="M154.466 111.174L176.453 119.887L176.359 119.782L181.131 106.66L158.677 98.0517L154.466 111.174Z" fill="#CCC2B8"/>
<path d="M196.288 80.1008L195.352 81.8855L180.85 121.568L193.2 126.397L193.387 126.607C193.387 126.607 195.446 127.866 198.814 129.126C202.182 130.491 206.86 131.751 211.818 131.751C218.368 131.646 225.384 129.651 231.466 122.303L234.834 96.3726L196.288 80.1008Z" fill="#CCC2B8"/>
<path d="M199.001 179.938L221.736 189.071L223.326 183.612L199.749 175.529L199.001 179.938Z" fill="#CCC2B8"/>
<path d="M124.622 55.7465L148.76 66.5593L157.648 47.663L132.668 34.1207L124.622 55.7465Z" fill="#CCC2B8"/>
<path d="M58.2876 0.105474L102.073 25.0906L102.635 23.8308L60.5331 0.105474L58.2876 0.105474Z" fill="#CCC2B8"/>
<path d="M71.2929 0.107819L104.6 18.8992L107.687 11.5506L85.4204 0.107817L71.2929 0.107819Z" fill="#CCC2B8"/>
<path d="M0.186782 519.23L21.9861 527.313L39.1075 477.448L42.0078 467.475L19.9278 459.391L0.186776 452.568L0.186782 519.23Z" fill="#B4CD9B"/>
<path d="M385.465 382.338C385.465 382.338 398.657 392.626 414.188 398.505L414.187 310.112C389.862 316.621 371.15 337.302 385.465 382.338Z" fill="#B4CD9B"/>
<path d="M282.736 431.152C311.646 436.821 338.404 448.579 366.753 456.243C382.471 460.547 398.282 463.591 414.094 467.055L414.094 454.983C404.738 452.988 395.382 450.994 386.026 448.684C356.181 441.335 328.113 428.633 297.893 422.544C283.578 419.605 269.357 416.455 255.043 413.306C254.669 417.19 254.201 421.074 253.733 425.169C263.557 427.268 273.1 429.263 282.736 431.152Z" fill="#8BBBB9"/>
<path d="M0.187201 807.608L13.7533 823.145L29.752 812.332L0.187199 778.319L0.187201 807.608Z" fill="#8095B2"/>
<path d="M77.1872 891.277C76.813 891.697 76.5323 892.222 76.4387 892.642C76.3452 893.062 76.2516 893.377 76.1581 893.692L78.2164 896.106L102.916 896.106L38.4536 822.201L22.5486 832.909C41.2604 851.91 59.9723 870.701 77.1872 891.277Z" fill="#8BBBB9"/>
<path d="M0.187895 365.331C4.39806 366.171 8.60822 367.116 12.8184 367.956C43.7865 374.255 72.977 384.858 103.197 394.621C130.984 403.649 159.8 408.058 188.429 412.362C205.644 414.987 222.672 418.346 239.606 422.02C240.074 418.031 240.448 414.042 240.916 410.263C231.934 408.373 222.953 406.693 213.971 405.224C181.88 399.975 149.789 395.775 118.447 386.012C98.238 379.714 78.497 372.47 58.2882 366.591L58.1947 367.116L53.4231 366.591L53.5167 365.226C46.6869 363.337 39.7635 361.657 32.7465 360.187C21.8936 357.983 11.0408 355.673 0.187894 353.364L0.187895 365.331Z" fill="#8BBBB9"/>
<path d="M330.733 896.106L414.187 689.717L414.187 663.472L320.067 896.106L330.733 896.106Z" fill="white"/>
<path d="M381.067 66.347L414.188 81.1492L414.187 72.4359L383.781 58.7886L381.067 66.347Z" fill="white"/>
<path d="M395.101 0.105847L414.188 14.2781L414.187 4.515L408.2 0.105845L395.101 0.105847Z" fill="white"/>
<path d="M57.1651 891.487L54.9197 896.106L78.216 896.106L76.1577 893.797L22.4546 833.014L22.5482 832.909L38.4532 822.201L102.916 896.106L119.85 896.106L99.0797 872.381L94.9631 867.657L184.499 765.197L179.354 759.528L140.433 803.829C136.784 796.901 129.299 782.623 120.879 766.562L178.605 727.614L259.908 816.322L242.974 853.38L206.018 896.106L216.122 896.106L248.962 858.209L265.428 821.991C269.358 826.61 275.065 835.008 274.878 844.246C274.878 847.711 274.223 851.28 272.352 855.269C261.499 878.26 261.405 879.205 259.627 883.089C258.598 885.503 258.318 888.233 258.318 891.592C258.318 893.062 258.411 894.532 258.598 896.001L265.896 896.001C265.615 894.532 265.522 892.957 265.522 891.592C265.522 889.178 265.99 886.868 266.083 886.658C267.954 882.459 267.861 882.039 278.714 858.943C281.146 853.904 282.082 848.865 282.082 844.141C281.895 829.549 273.287 818.946 268.796 814.327L287.882 772.44L342.427 804.774L305.659 896.106L316.231 896.106L414.187 652.554L414.187 626.204L400.06 661.477L359.081 641.636L365.162 614.236L414.187 586.207L414.187 556.602L277.684 648.984L267.767 654.653L258.224 638.067L262.154 581.693L289.473 592.715L291.905 585.052L262.715 573.189L264.305 551.039L414.187 546.839L414.187 533.297L265.335 537.496L272.632 450.783L414.187 493.93L414.187 485.531L252.704 436.191C253.078 432.517 253.546 428.842 253.92 425.273C254.388 421.284 254.762 417.295 255.23 413.41C257.476 392.31 259.44 373.623 260.75 360.186C263.931 327.537 271.042 296.778 277.31 274.418C280.491 263.185 283.485 254.052 285.637 247.648C287.789 241.349 289.099 237.885 289.099 237.885C289.099 237.885 293.496 226.757 300.7 208.595L300.513 210.275L414.187 226.022L414.187 217.834L362.075 210.59L364.227 141.933L414.187 154.741L414.187 146.448L333.165 125.557C339.621 109.075 346.357 91.6483 353.187 74.1167L390.423 95.2175L393.698 87.974L356.181 66.6632C359.736 57.53 363.291 48.2918 366.846 39.1585L414.187 62.254L414.187 53.4357L398.002 45.5623L408.106 17.3228L401.37 14.2784L391.265 42.2029L369.653 31.6C373.77 20.8921 377.886 10.2892 381.816 0.0011907L366.004 0.00119208C365.63 0.841028 365.349 1.78584 364.975 2.62568L360.952 0.00119253L346.825 0.00119376L362.168 10.1842C351.69 37.3738 340.556 66.0333 329.984 93.3279C324.838 106.555 319.786 119.363 315.015 131.645L262.621 118.208L272.351 12.7037L328.768 45.4573L331.013 40.6282L272.819 6.82487L273.006 0.00120022L268.141 0.00120064L268.048 3.99041L261.124 0.00120125L250.646 0.00120217L267.861 9.97425L263.37 58.2648L184.593 15.3282L189.364 0.106161L184.219 0.106162L180.196 13.0186L156.619 0.106164L145.579 0.106165L178.605 18.1626L159.519 79.1557L100.202 54.8005L121.908 0.211121L116.575 0.211122L108.248 21.1021L104.693 19.1074L71.3861 0.316144L60.5332 0.316144L102.635 23.8315L106.284 25.9311L95.5244 52.9108L33.4945 30.8652L45.5637 0.106174L37.6111 0.106175L26.5712 28.4506L12.3501 23.4116C13.8471 16.273 15.9989 8.39953 18.6186 0.21113L10.9467 0.211131C8.70131 7.45472 6.83013 14.4884 5.42674 20.9971L0.187411 19.1074L0.187412 24.7764L24.6064 33.4896L15.6247 56.4802L0.187414 50.3914L0.187415 56.1653L13.66 61.5192L2.61997 89.8637L0.187417 88.8139L0.18742 120.833L5.98811 102.776L32.8396 113.799L0.187429 224.237L0.187432 250.167L39.5759 116.528L49.2125 120.518L26.1969 194.423L33.0268 197.048L55.9488 123.247L64.9305 126.921L59.504 297.408L0.0938684 272.213L0.0938689 277.987L59.3169 303.077L59.3169 303.392L53.4227 365.225L53.3291 366.59L58.1007 367.115L58.1942 366.59L64.0884 305.072L123.779 330.372L115.827 375.828L120.598 376.878L130.048 322.708L175.611 339.295L176.453 339.4L169.717 384.961L174.488 385.801L181.318 340.135L198.065 342.864L197.972 343.494L192.358 392.31L197.13 393.044L202.743 344.334L202.837 343.599L226.227 347.273L218.929 394.934L223.701 395.879L242.225 275.572L245.406 197.048L246.623 191.484L286.198 204.921C279.743 221.298 275.813 231.271 275.813 231.271C275.626 231.691 252.891 290.06 246.248 358.296C244.939 371.419 243.067 389.58 240.822 410.261C240.448 414.145 239.98 418.03 239.512 422.019C239.138 425.588 238.764 429.157 238.296 432.832C219.678 429.052 180.851 421.494 144.924 416.14C95.8986 408.791 25.7291 387.691 1.49727 377.088C1.02947 376.878 0.561674 376.668 0.0938776 376.458L0.0938783 385.171C22.7352 394.829 76.9061 411.311 122.937 420.444L112.926 475.138L138.281 478.498L128.738 514.506L129.299 541.171L107.594 541.8L115.359 489.311L108.248 487.946L100.202 542.01L62.2173 543.06L89.9108 431.467L82.8939 429.262L54.639 543.27L27.6003 544.005L48.8383 469.26L48.9319 469.26L62.3108 422.124L62.6851 420.759L55.7617 418.24L44.1603 459.077L0.000318421 443.96L0.000319165 452.463L19.7413 459.182L41.9149 466.74L41.7278 467.265L38.921 477.238L19.9285 544.11L0.000327223 544.635L0.000328406 558.177L5.33322 558.072L4.86543 573.714L3.36847 578.333L0.000330104 577.598L0.000330829 585.892L0.935924 586.102L0.000331086 588.831L0.000331738 596.285L4.6783 598.174L12.163 575.184L12.818 558.072L32.8397 557.547L53.5163 584.947L14.1278 684.573L0.0939039 677.644L0.0939047 686.567L11.1339 692.026L0.0939076 720.056L0.0939093 740.107L13.0986 707.143L18.5251 708.298L3.55562 745.146L10.1048 748.505L25.5421 710.607L51.458 727.929L55.2003 720.895L28.6295 703.154L43.6926 666.096C56.0424 674.494 72.5088 687.827 78.5902 700.529C82.5197 708.613 90.4722 724.15 99.1732 741.052L25.8227 788.397L0.187476 758.898L0.187478 778.319L29.7522 812.333L13.7536 823.145L0.281045 807.713L0.281047 827.03L3.08783 830.284L0.281047 832.174L0.281049 847.816L11.8824 840.152L57.1651 891.487ZM330.265 133.22L358.145 140.359L357.116 140.359L354.871 209.645L303.133 202.402C310.337 184.03 319.786 159.99 330.265 133.22ZM162.419 86.0844L185.061 95.4275L186.745 90.3885L164.103 81.0453L183.096 20.5772L229.876 46.0872L220.8 67.293L225.198 69.6026L234.273 48.3967L262.996 64.0387L258.13 116.109L242.88 107.92L244.564 98.262C245.032 97.3172 245.968 95.0076 245.968 91.9632C246.061 87.5541 243.909 81.5702 237.08 76.5312C230.53 71.5972 219.865 66.9781 201.901 63.6188L209.199 34.9594L204.521 33.4896L196.475 64.9835L181.225 106.765L176.453 119.888L176.64 119.993L154.654 111.279L158.77 98.157L162.419 86.0844ZM241.009 91.9632C241.009 93.223 240.728 94.1678 240.541 94.9026C240.448 95.2176 240.354 95.5325 240.261 95.6375C240.167 95.7425 240.167 95.7425 240.167 95.7425L239.886 96.1624L236.612 114.324C235.021 117.473 233.244 120.098 231.466 122.197C225.385 129.546 218.368 131.54 211.819 131.645C206.86 131.645 202.182 130.386 198.814 129.021C195.446 127.761 193.387 126.397 193.387 126.502L193.2 126.396L180.85 121.567L195.352 81.8852L200.217 68.6578C218.181 72.0171 228.566 76.6362 234.273 80.9404C240.074 85.4545 241.009 89.3387 241.009 91.9632ZM98.144 59.6296L157.835 84.1947L154.093 96.2674L149.976 109.39L97.7698 88.8138L87.5718 84.8246L98.144 59.6296ZM194.417 178.046L185.996 226.442L149.602 206.181L165.881 166.499L166.817 164.294L195.165 173.952L194.417 178.046ZM199.001 179.936L199.749 175.527L223.326 183.61L221.642 189.174L206.86 238.2L190.394 229.066L199.001 179.936ZM107.781 190.539L97.6763 222.243L67.7373 205.971L67.363 206.916L68.4857 170.383L107.781 190.539ZM68.6729 164.399L69.702 131.226L125.65 150.332L139.029 154.846L138.842 155.581L128.738 195.368L68.6729 164.399ZM112.178 192.849L127.335 200.722L117.698 233.266L102.074 224.762L112.178 192.849ZM131.732 202.927L143.614 209.12L138.094 244.393L122.002 235.575L131.732 202.927ZM148.198 211.535L184.967 232.006L178.979 266.124L176.921 265.494L142.585 246.808L148.198 211.535ZM161.297 164.714L145.204 203.976L133.229 197.783L143.52 157.575L143.801 156.526L162.232 162.824L161.297 164.714ZM140.901 146.973L81.584 126.711L71.3861 123.247L85.5135 89.6537L95.6179 93.6429L148.479 114.534L140.901 146.973ZM31.5298 35.9042L93.4661 57.9499L82.8939 83.04L22.4545 59.2096L31.5298 35.9042ZM9.44979 92.5931L20.5833 64.1437L80.9291 87.974L68.7664 117.053L9.44979 92.5931ZM124.715 325.018L64.3691 299.508L67.1759 211.745L95.8986 227.387L77.3739 273.263L81.7712 275.467L100.202 229.696L115.92 238.305L96.6471 285.021L101.044 287.33L120.318 240.719L137.345 249.957L132.761 279.352L124.715 325.018ZM177.295 334.151L176.64 334.046L130.89 317.459L135.755 289.85L183.002 295.623L177.295 334.151ZM226.975 341.919L203.773 338.245L211.444 298.353L206.766 297.198L199.001 337.51L182.067 334.781L188.616 290.794L136.69 284.391L137.439 280.087L141.836 252.162L175.33 270.428L235.302 288.38L226.975 341.919ZM237.36 274.942L236.05 283.131L183.657 267.489L189.458 234.525L227.349 255.626L239.606 217.939L237.36 274.942ZM240.541 196.313L240.167 204.396L239.044 203.976L224.636 248.068L211.257 240.614L226.227 191.064L228.004 185.29L239.98 189.384L242.038 190.119L240.541 196.313ZM243.816 182.036L242.225 181.511L145.579 148.547L153.063 116.318L191.329 131.435C192.826 132.275 201.34 137.104 211.819 137.104C218.742 137.209 226.507 134.9 233.244 127.971C236.05 125.032 238.764 121.357 241.009 116.633L241.196 116.318L241.196 116.213L256.634 124.507L254.107 135.845L250.459 151.906L243.816 182.036ZM248.4 183.61L261.312 126.292L312.021 139.204C304.536 158.31 297.706 175.632 292.093 190.014C291.063 192.639 290.128 195.053 289.192 197.468L248.4 183.61ZM135.287 810.023L89.9109 861.883L49.0255 815.062L114.704 770.761C124.06 788.607 132.2 804.144 135.287 810.023ZM176.173 713.547L132.106 664.731L164.478 553.873L202.743 552.823L199.282 599.119L218.742 607.623C217.9 614.656 217.432 619.065 217.339 620.01C217.152 621.165 216.59 624.944 216.59 630.193C216.59 637.857 217.619 648.775 222.952 659.482C224.543 662.632 227.63 668.616 231.56 676.069L176.173 713.547ZM206.954 593.66L210.041 552.508L225.104 552.088C222.952 570.88 221.081 587.257 219.678 599.224L206.954 593.66ZM263.37 808.763L185.061 723.31L237.735 687.722C254.762 720.056 279.462 766.247 279.462 766.247L280.491 768.241L281.52 768.871L263.37 808.763ZM397.066 668.826L348.415 789.867L305.004 764.252L356.087 648.984L397.066 668.826ZM356.555 619.065L352.251 638.382L336.346 630.613L356.555 619.065ZM283.485 660.742L328.019 635.337L349.444 645.73L298.548 760.473L290.876 755.959C287.695 749.975 277.591 731.078 266.738 710.712C261.686 701.159 256.446 691.291 251.675 682.263L283.485 660.742ZM251.768 444.274L265.522 448.474L258.037 537.601L241.29 538.021C244.658 508.627 248.4 475.243 251.768 444.274ZM239.793 551.668L257.008 551.144L250.739 640.061L261.218 658.223L244.19 667.986C240.261 660.532 237.173 654.548 235.676 651.504C232.027 644.155 231.092 635.967 231.092 630.088C231.092 627.779 231.185 625.784 231.373 624.524C231.466 623.894 231.466 623.369 231.56 623.055C231.56 622.74 231.653 622.74 231.653 622.74L231.747 622.425L231.747 622.11C231.653 622.215 235.208 592.191 239.793 551.668ZM237.547 441.02C234.928 464.955 232.121 490.36 229.408 514.296C228.472 522.589 227.537 530.673 226.695 538.546L211.07 538.966L218.648 437.241C226.133 438.711 232.589 439.97 237.547 441.02ZM145.766 479.548L145.953 479.548L156.993 437.136L156.993 436.926L150.069 434.616L150.069 434.721L140.526 470.624L121.721 468.21L130.141 421.914C134.913 422.754 139.591 423.593 143.988 424.223C167.284 427.688 191.891 432.202 211.351 435.876L203.679 539.176L149.415 540.646L151.66 518.6L160.642 484.377L153.718 482.067L144.549 516.92L142.117 540.751L137.252 540.856L136.691 540.751L136.129 515.556L145.766 479.548ZM42.1956 557.232L156.806 553.978L126.399 658.223L78.4031 604.998L42.1956 557.232ZM21.7061 700.634L16.1861 699.48L32.2783 658.853C33.1203 659.377 34.0559 659.902 35.1786 660.532C35.9271 660.952 36.6756 661.477 37.5176 661.897L21.7061 700.634ZM40.418 654.653C38.3597 653.394 36.582 652.239 35.1786 651.504L58.7556 591.876L63.4336 598.069L40.418 654.653ZM84.9522 696.75C78.5902 683.733 65.3983 672.29 53.7969 663.682C51.3644 661.897 48.9319 660.217 46.6865 658.748L68.5793 604.893L72.9766 610.772L111.804 653.604L94.9631 671.345L99.9217 677.224L116.949 659.272L129.206 672.815L105.816 699.06L110.962 704.834L134.445 678.484L169.811 717.746L114.891 754.804C113.02 751.235 111.149 747.56 109.278 743.991L128.832 731.288L125.183 724.255L105.442 737.062C96.7407 720.161 88.7882 704.729 84.9522 696.75ZM102.822 748.085C104.693 751.759 106.658 755.434 108.529 759.108L40.3244 805.089L31.0621 794.381L102.822 748.085Z" fill="white"/>
<path d="M343.644 896.106L372.741 825.035L414.187 850.335L414.187 825.665L380.88 805.299L414.187 724.045L414.187 698.115L332.978 896.106L343.644 896.106Z" fill="white"/>
<path d="M0.187452 409.631L0.187453 427.477L4.95898 411.31L0.187452 409.631Z" fill="white"/>
</svg>
